<?xml version="1.0" encoding="UTF-8"?>
<svg xmlns="http://www.w3.org/2000/svg" xmlns:xlink="http://www.w3.org/1999/xlink" width="146pt" height="36pt" viewBox="0 0 146 36" version="1.1">
<g id="surface1">
<path style=" stroke:none;fill-rule:nonzero;fill:rgb(37.254902%,72.54902%,98.039216%);fill-opacity:1;" d="M 11.917969 9.726562 C 12.617188 10.234375 13.539062 10.3125 14.316406 9.933594 C 17.019531 8.78125 19.695312 8.753906 22.296875 10.261719 C 22.714844 10.542969 23.261719 10.53125 23.671875 10.238281 C 25.726562 8.953125 27.523438 7.292969 28.964844 5.34375 C 29.4375 4.699219 29.417969 4.171875 28.679688 3.617188 C 25.542969 1.15625 21.941406 0.152344 17.992188 0.0703125 C 14.289062 0.144531 10.8125 1.101562 7.75 3.332031 C 6.601562 4.175781 6.511719 4.585938 7.402344 5.703125 C 8.683594 7.277344 10.210938 8.636719 11.917969 9.726562 Z M 11.917969 9.726562 "/>
<path style=" stroke:none;fill-rule:nonzero;fill:rgb(15.686275%,58.039216%,98.039216%);fill-opacity:1;" d="M 9.550781 24.335938 C 10.117188 23.589844 10.207031 22.585938 9.78125 21.746094 C 8.632812 19.097656 8.675781 16.480469 10.113281 13.9375 C 10.402344 13.527344 10.410156 12.980469 10.140625 12.558594 C 8.847656 10.476562 7.167969 8.65625 5.191406 7.203125 C 4.5625 6.746094 4.085938 6.785156 3.554688 7.464844 C 1.121094 10.582031 0.101562 14.15625 0 18.171875 C 0.0898438 21.898438 1.023438 25.472656 3.40625 28.578125 C 4.148438 29.546875 4.425781 29.59375 5.417969 28.863281 C 7.109375 27.652344 8.371094 26.035156 9.550781 24.335938 Z M 9.550781 24.335938 "/>
<path style=" stroke:none;fill-rule:nonzero;fill:rgb(10.588235%,36.862745%,78.039216%);fill-opacity:1;" d="M 17.875 12.921875 C 15.085938 12.925781 12.824219 15.1875 12.816406 17.984375 C 12.808594 20.777344 15.058594 23.054688 17.847656 23.070312 C 20.636719 23.089844 22.914062 20.839844 22.941406 18.046875 C 22.960938 16.691406 22.433594 15.382812 21.480469 14.421875 C 20.527344 13.457031 19.230469 12.917969 17.875 12.921875 Z M 17.875 12.921875 "/>
<path style=" stroke:none;fill-rule:nonzero;fill:rgb(10.588235%,36.862745%,78.039216%);fill-opacity:1;" d="M 28.761719 30.496094 C 27.507812 28.789062 25.890625 27.484375 24.136719 26.300781 C 23.441406 25.785156 22.511719 25.707031 21.738281 26.097656 C 19.0625 27.277344 16.417969 27.246094 13.839844 25.808594 C 13.421875 25.527344 12.875 25.527344 12.457031 25.808594 C 10.386719 27.074219 8.589844 28.738281 7.160156 30.703125 C 6.679688 31.375 6.730469 31.851562 7.449219 32.429688 C 8.09375 32.933594 8.773438 33.386719 9.488281 33.785156 C 10.085938 34.128906 10.707031 34.421875 11.347656 34.671875 L 11.460938 34.714844 L 11.875 34.867188 L 12.09375 34.945312 L 12.566406 35.085938 L 12.628906 35.101562 C 15.882812 36.136719 19.367188 36.214844 22.664062 35.324219 C 24.503906 34.867188 26.246094 34.089844 27.8125 33.019531 L 27.835938 33.003906 C 28.050781 32.855469 28.265625 32.714844 28.476562 32.539062 C 29.40625 31.792969 29.472656 31.464844 28.761719 30.496094 Z M 28.761719 30.496094 "/>
<path style=" stroke:none;fill-rule:nonzero;fill:rgb(16.862745%,16.862745%,21.960784%);fill-opacity:1;" d="M 46.410156 21.421875 C 45.457031 23.800781 43.597656 24.988281 40.808594 24.988281 C 38.878906 24.988281 37.410156 24.371094 36.359375 23.15625 C 35.308594 21.941406 34.792969 20.40625 34.792969 18.550781 C 34.792969 16.691406 35.308594 15.160156 36.359375 13.945312 C 37.410156 12.730469 38.878906 12.113281 40.808594 12.113281 C 43.597656 12.113281 45.457031 13.304688 46.410156 15.675781 L 43.695312 16.792969 C 43.035156 15.429688 42.058594 14.738281 40.824219 14.738281 C 38.964844 14.738281 37.988281 16.273438 37.988281 18.550781 C 37.988281 20.828125 38.964844 22.363281 40.824219 22.363281 C 42.070312 22.363281 43.050781 21.667969 43.695312 20.308594 Z M 46.410156 21.421875 "/>
<path style=" stroke:none;fill-rule:nonzero;fill:rgb(16.862745%,16.862745%,21.960784%);fill-opacity:1;" d="M 52.082031 24.773438 L 48.921875 24.773438 L 48.921875 12.394531 L 52.082031 12.394531 L 52.082031 14.410156 C 53 13.011719 54.378906 12.199219 55.878906 12.199219 C 56.40625 12.203125 56.929688 12.289062 57.429688 12.449219 L 56.855469 15.273438 C 56.453125 15.042969 55.996094 14.921875 55.53125 14.925781 C 53.523438 14.925781 52.085938 16.621094 52.085938 20.378906 Z M 52.082031 24.773438 "/>
<path style=" stroke:none;fill-rule:nonzero;fill:rgb(16.862745%,16.862745%,21.960784%);fill-opacity:1;" d="M 69.886719 19.589844 L 61.390625 19.589844 C 61.46875 21.101562 62.542969 22.414062 64.304688 22.414062 C 65.550781 22.414062 66.554688 21.769531 67.289062 20.480469 L 69.734375 21.398438 C 68.683594 23.824219 66.824219 25.035156 64.132812 25.035156 C 59.902344 25.035156 58.210938 21.582031 58.210938 18.601562 C 58.210938 15.621094 59.902344 12.164062 64.132812 12.164062 C 66.089844 12.164062 67.679688 12.980469 68.558594 14.242188 C 69.414062 15.433594 69.878906 16.863281 69.878906 18.328125 Z M 61.574219 17 L 66.882812 17 C 66.539062 15.414062 65.660156 14.621094 64.242188 14.625 C 62.796875 14.625 61.792969 15.6875 61.574219 17 Z M 61.574219 17 "/>
<path style=" stroke:none;fill-rule:nonzero;fill:rgb(16.862745%,16.862745%,21.960784%);fill-opacity:1;" d="M 85.890625 12.394531 L 88.921875 12.394531 L 85.015625 24.773438 L 82.359375 24.773438 L 80.246094 16.765625 L 78.136719 24.773438 L 75.464844 24.773438 L 71.558594 12.394531 L 74.59375 12.394531 L 76.777344 20.890625 L 78.835938 12.394531 L 81.652344 12.394531 L 83.714844 20.890625 Z M 85.890625 12.394531 "/>
<path style=" stroke:none;fill-rule:nonzero;fill:rgb(16.862745%,16.862745%,21.960784%);fill-opacity:1;" d="M 99.117188 14.144531 L 97.308594 15.828125 C 96.839844 15.15625 96.074219 14.75 95.253906 14.738281 C 94.644531 14.738281 94.128906 15.109375 94.128906 15.777344 C 94.128906 16.296875 94.519531 16.691406 95.304688 16.988281 L 96.183594 17.3125 L 97.238281 17.683594 C 97.539062 17.824219 97.832031 17.980469 98.117188 18.15625 C 98.449219 18.308594 98.75 18.527344 98.996094 18.796875 C 99.476562 19.367188 99.746094 20.085938 99.753906 20.828125 C 99.769531 21.9375 99.328125 23.003906 98.53125 23.773438 C 97.691406 24.601562 96.546875 25.039062 95.371094 24.988281 C 94.269531 25.007812 93.191406 24.648438 92.316406 23.972656 C 91.511719 23.363281 90.878906 22.550781 90.480469 21.621094 L 92.902344 20.308594 C 93.394531 21.667969 94.222656 22.363281 95.371094 22.363281 C 96.375 22.363281 96.890625 21.917969 96.890625 21.023438 C 96.886719 20.601562 96.625 20.226562 96.226562 20.082031 C 96.011719 19.96875 95.78125 19.871094 95.546875 19.796875 C 95.128906 19.597656 94.273438 19.328125 93.808594 19.128906 C 92.242188 18.460938 91.3125 17.546875 91.3125 15.761719 C 91.300781 14.785156 91.699219 13.84375 92.410156 13.179688 C 93.175781 12.453125 94.199219 12.070312 95.25 12.113281 C 96.796875 12.09375 98.25 12.855469 99.117188 14.144531 Z M 99.117188 14.144531 "/>
<path style=" stroke:none;fill-rule:nonzero;fill:rgb(16.862745%,16.862745%,21.960784%);fill-opacity:1;" d="M 113.304688 21.421875 C 112.351562 23.800781 110.492188 24.988281 107.703125 24.988281 C 105.773438 24.988281 104.304688 24.371094 103.25 23.15625 C 102.195312 21.941406 101.6875 20.40625 101.6875 18.550781 C 101.6875 16.691406 102.199219 15.160156 103.25 13.945312 C 104.300781 12.730469 105.773438 12.113281 107.703125 12.113281 C 110.492188 12.113281 112.351562 13.304688 113.304688 15.675781 L 110.589844 16.792969 C 109.929688 15.429688 108.953125 14.738281 107.703125 14.738281 C 105.84375 14.738281 104.863281 16.273438 104.863281 18.550781 C 104.863281 20.828125 105.84375 22.363281 107.703125 22.363281 C 108.953125 22.363281 109.929688 21.667969 110.589844 20.308594 Z M 113.304688 21.421875 "/>
<path style=" stroke:none;fill-rule:nonzero;fill:rgb(16.862745%,16.862745%,21.960784%);fill-opacity:1;" d="M 115.316406 15.445312 C 115.726562 13.339844 117.632812 11.9375 120.199219 11.9375 C 123.789062 11.9375 125.597656 13.691406 125.597656 17.226562 L 125.597656 24.773438 L 123.015625 24.773438 L 122.679688 23.167969 C 121.71875 24.351562 120.257812 25.019531 118.730469 24.972656 C 116.464844 24.972656 114.835938 23.570312 114.835938 21.136719 C 114.835938 18.628906 117.050781 17 120.3125 17 L 122.453125 17 L 122.453125 16.449219 C 122.453125 15.21875 121.714844 14.59375 120.210938 14.59375 C 119.0625 14.59375 118.324219 15.070312 117.992188 16.035156 Z M 119.585938 22.421875 C 120.3125 22.429688 121.015625 22.175781 121.570312 21.703125 C 122.144531 21.257812 122.472656 20.558594 122.449219 19.832031 L 122.449219 19.582031 L 120.421875 19.582031 C 119.023438 19.582031 118.316406 20.125 118.316406 21.191406 C 118.300781 21.53125 118.433594 21.859375 118.675781 22.09375 C 118.917969 22.328125 119.25 22.449219 119.585938 22.421875 Z M 119.585938 22.421875 "/>
<path style=" stroke:none;fill-rule:nonzero;fill:rgb(16.862745%,16.862745%,21.960784%);fill-opacity:1;" d="M 128.480469 7.214844 L 131.640625 7.214844 L 131.640625 24.773438 L 128.480469 24.773438 Z M 128.480469 7.214844 "/>
<path style=" stroke:none;fill-rule:nonzero;fill:rgb(16.862745%,16.862745%,21.960784%);fill-opacity:1;" d="M 146 19.589844 L 137.503906 19.589844 C 137.578125 21.101562 138.652344 22.414062 140.417969 22.414062 C 141.664062 22.414062 142.664062 21.769531 143.402344 20.480469 L 145.84375 21.398438 C 144.792969 23.824219 142.933594 25.035156 140.246094 25.035156 C 136.011719 25.035156 134.324219 21.582031 134.324219 18.601562 C 134.324219 15.621094 136.011719 12.164062 140.246094 12.164062 C 142.199219 12.164062 143.792969 12.980469 144.671875 14.242188 C 145.527344 15.433594 145.988281 16.863281 145.992188 18.328125 Z M 137.617188 17 L 142.925781 17 C 142.582031 15.414062 141.703125 14.621094 140.28125 14.625 C 138.839844 14.625 137.835938 15.6875 137.617188 17 Z M 137.617188 17 "/>
</g>
</svg>
